<svg width="100" height="100" viewBox="0 0 100 100" fill="none" xmlns="http://www.w3.org/2000/svg">
<circle cx="50" cy="50" r="50" fill="#F8F8F8"/>
<path d="M50.7051 27.2301L31.4343 63.1436C33.9858 63.0517 35.9732 63.2525 40.2415 61.1117L50.7513 41.3657L55.7487 50.3507C56.7326 48.1671 57.9501 46.5933 61.1385 46.2607L50.7051 27.2301Z" fill="#2D5CA0"/>
<path d="M50.4076 56.6848C50.4076 56.2984 50.2654 55.9278 50.0123 55.6546C49.7592 55.3813 49.416 55.2278 49.0581 55.2278C48.7001 55.2278 48.3569 55.3813 48.1038 55.6546C47.8507 55.9278 47.7085 56.2984 47.7085 56.6848C47.7085 57.0712 47.8507 57.4417 48.1038 57.715C48.3569 57.9882 48.7001 58.1417 49.0581 58.1417C49.416 58.1417 49.7592 57.9882 50.0123 57.715C50.2654 57.4417 50.4076 57.0712 50.4076 56.6848ZM20.2756 61.9562C30.8638 69.8478 44.9769 61.1428 46.3835 58.7068C45.3604 56.3293 46.2706 54.2344 48.1478 53.5964C49.5484 53.0982 51.4635 53.8246 51.8962 55.8812C52.4306 58.8251 49.8848 60.0492 48.8699 60.0842C38.0441 70.5903 22.9461 66.7511 20.2756 61.9562Z" fill="#2D5CA0"/>
<path d="M58.5342 55.5353C57.9422 55.5223 55.4324 51.7498 58.4957 48.8865C60.0583 47.482 62.1461 47.71 63.5353 48.9145C65.3397 50.4177 66.0604 54.9705 61.7113 56.464C58.9419 61.0562 55.0575 64.4446 50.3259 66.9185C41.5119 71.5271 33.8506 71.5205 27.1299 67.7485C32.6764 68.9747 37.9332 70.9493 50.0806 63.881C53.303 61.85 56.2278 59.0263 58.5342 55.5353ZM62.8169 52.3234C62.8169 51.2734 62.0284 50.4221 61.0557 50.4221C60.083 50.4221 59.2945 51.2734 59.2945 52.3234C59.2945 53.3735 60.083 54.2247 61.0557 54.2247C62.0284 54.2247 62.8169 53.3735 62.8169 52.3234Z" fill="#4994CE"/>
<path d="M76.8037 37.2502C76.8037 35.9567 75.8324 34.9081 74.6342 34.9081C73.4361 34.9081 72.4648 35.9567 72.4648 37.2502C72.4648 38.5437 73.4361 39.5923 74.6342 39.5923C75.8324 39.5923 76.8037 38.5437 76.8037 37.2502ZM39.3167 71.9868C60.5703 71.7161 73.0552 47.2662 72.8701 42.4313C70.0734 41.1986 68.6146 37.7241 70.3974 34.5483C72.3177 31.2884 76.5152 30.9748 78.8056 34.2657C80.9764 37.8619 78.8848 41.1409 76.8283 42.2904C75.6427 46.8394 74.2676 53.5775 68.1073 59.4838L73.7999 69.797H65.948L63.0035 64.4991C50.305 74.254 45.4058 73.2365 39.3167 71.9868Z" fill="#76CEF0"/>
</svg>
